<svg xmlns="http://www.w3.org/2000/svg" xmlns:xlink="http://www.w3.org/1999/xlink" preserveAspectRatio="xMidYMid" width="15" height="20" viewBox="0 0 15 20">
  <defs>
    <style>
      .cls-1 {
        fill: #000;
        fill-rule: evenodd;
      }
    </style>
  </defs>
  <path d="M14.583,12.500 L12.917,12.500 C12.687,12.500 12.500,12.687 12.500,12.916 C12.500,13.146 12.687,13.333 12.917,13.333 L14.154,13.333 C13.950,16.558 11.362,18.967 7.917,19.150 L7.917,8.333 L11.250,8.333 C11.479,8.333 11.667,8.145 11.667,7.916 C11.667,7.687 11.479,7.499 11.250,7.499 L7.917,7.499 L7.917,4.124 C9.046,3.895 9.771,2.795 9.542,1.666 C9.312,0.541 8.212,-0.188 7.083,0.041 C5.954,0.270 5.229,1.374 5.458,2.499 C5.625,3.316 6.267,3.958 7.083,4.124 L7.083,7.499 L3.750,7.499 C3.521,7.499 3.333,7.687 3.333,7.916 C3.333,8.145 3.521,8.333 3.750,8.333 L7.083,8.333 L7.083,19.150 C3.642,18.967 1.054,16.558 0.846,13.333 L2.083,13.333 C2.313,13.333 2.500,13.145 2.500,12.916 C2.500,12.687 2.313,12.500 2.083,12.500 L0.417,12.500 C0.187,12.500 -0.000,12.687 -0.000,12.916 C-0.000,16.954 3.225,20.000 7.500,20.000 C11.775,20.000 15.000,16.954 15.000,12.916 C15.000,12.687 14.812,12.500 14.583,12.500 ZM6.250,2.083 C6.250,1.391 6.808,0.833 7.500,0.833 C8.192,0.833 8.750,1.391 8.750,2.083 C8.750,2.774 8.192,3.333 7.500,3.333 C6.808,3.333 6.250,2.774 6.250,2.083 Z" class="cls-1"/>
</svg>
