<svg xmlns="http://www.w3.org/2000/svg" xmlns:xlink="http://www.w3.org/1999/xlink" preserveAspectRatio="xMidYMid" width="39" height="45" viewBox="0 0 39 45">
  <defs>
    <style>
      .cls-1 {
        fill: #363636;
        opacity: 0.7;
        fill-rule: evenodd;
      }
    </style>
  </defs>
  <path d="M36.307,7.944 C35.893,8.451 34.731,9.742 33.226,10.323 C32.040,10.780 30.541,11.128 30.087,11.228 C29.676,11.638 29.216,12.002 28.699,12.299 C29.879,13.253 32.384,15.438 33.446,17.593 C34.177,19.077 36.276,24.370 32.601,30.162 C31.189,32.387 29.399,33.955 27.745,35.045 C27.957,35.375 28.262,35.860 28.631,36.482 C29.199,37.437 28.879,38.113 28.336,38.619 L28.753,39.400 L30.769,38.360 L35.388,38.525 L27.147,42.948 L25.741,40.306 C25.440,40.457 25.127,40.564 24.821,40.564 C24.464,40.564 24.116,40.419 23.806,40.024 C23.668,39.849 23.532,39.621 23.399,39.378 L23.399,39.633 C23.405,39.796 23.405,40.435 22.995,40.861 C22.774,41.091 22.476,41.213 22.136,41.213 L21.790,41.214 L21.790,42.455 L24.532,42.455 L28.802,45.001 L18.348,45.001 L18.348,41.217 C18.202,41.215 18.085,41.212 18.030,41.209 C17.233,41.155 16.790,40.663 16.784,39.824 C16.781,39.331 16.781,38.215 16.782,37.589 C16.089,37.462 14.785,37.163 13.975,36.609 C13.113,36.020 12.311,34.944 11.977,34.464 L-0.001,34.464 L2.213,33.459 C2.370,33.387 17.996,26.232 20.394,19.965 C22.748,13.810 19.756,10.091 19.628,9.936 L19.636,9.929 C18.834,8.889 18.579,7.696 18.582,6.951 L18.579,6.951 C18.579,6.944 18.581,6.936 18.581,6.929 C18.581,6.915 18.579,6.896 18.579,6.882 L18.586,6.882 C18.624,3.144 21.679,-0.003 25.298,-0.003 C26.805,-0.003 28.184,0.504 29.306,1.330 C29.569,1.401 32.101,2.106 34.169,3.272 C36.339,4.498 38.271,6.994 38.352,7.100 L39.000,7.944 L36.307,7.944 ZM32.834,9.342 C33.643,9.030 34.362,8.439 34.864,7.944 L31.868,7.944 C31.724,8.634 31.470,9.285 31.120,9.885 C31.669,9.737 32.291,9.551 32.834,9.342 ZM27.591,41.509 L31.449,39.439 L31.015,39.423 L28.302,40.822 L27.460,39.246 C27.385,39.291 27.309,39.337 27.238,39.379 L27.161,39.425 C26.992,39.523 26.822,39.637 26.654,39.749 L27.591,41.509 ZM24.654,39.380 C24.822,39.594 25.026,39.559 25.971,38.929 C26.177,38.792 26.388,38.651 26.609,38.520 L26.688,38.475 C27.863,37.784 28.025,37.551 27.705,37.013 C27.347,36.409 27.046,35.932 26.839,35.608 C25.437,36.419 24.227,36.874 23.554,37.092 C23.822,37.812 24.268,38.888 24.654,39.380 ZM19.421,43.948 L24.968,43.948 L24.231,43.509 L20.717,43.509 L20.717,41.218 C20.245,41.220 19.802,41.221 19.421,41.221 L19.421,43.948 ZM14.588,35.744 C15.341,36.259 16.866,36.551 17.390,36.620 L17.856,36.682 L17.855,37.143 C17.855,37.143 17.852,39.114 17.857,39.817 C17.859,40.141 17.916,40.145 18.104,40.157 C18.341,40.173 20.247,40.166 21.271,40.162 C21.640,40.161 21.950,40.160 22.135,40.160 C22.193,40.160 22.207,40.147 22.215,40.138 C22.296,40.055 22.332,39.809 22.327,39.674 L22.326,36.337 L22.731,36.236 C22.787,36.223 28.409,34.777 31.690,29.605 C35.075,24.270 33.150,19.414 32.480,18.053 C31.833,16.738 30.538,15.366 29.420,14.331 C29.698,15.010 29.945,15.772 30.055,16.564 C30.176,17.445 30.055,18.081 29.683,18.507 C29.149,19.119 28.298,19.135 27.396,19.152 C27.173,19.157 26.942,19.161 26.710,19.174 C26.477,19.188 26.402,19.339 26.243,20.684 C26.059,22.244 25.751,24.854 23.962,28.455 C21.331,33.756 15.590,34.427 13.317,34.477 C13.667,34.916 14.128,35.430 14.588,35.744 ZM4.752,33.410 L12.404,33.410 L12.451,33.412 C12.527,33.419 20.022,33.989 22.998,27.993 C24.707,24.553 24.990,22.152 25.178,20.563 C25.334,19.239 25.457,18.194 26.644,18.122 C26.892,18.108 27.138,18.103 27.375,18.098 C28.030,18.086 28.648,18.074 28.869,17.821 C29.026,17.642 29.068,17.256 28.992,16.705 C28.749,14.948 27.728,13.256 27.373,12.709 C26.567,12.636 24.174,12.365 21.935,11.571 C21.829,11.533 21.746,11.479 21.645,11.437 C22.376,13.328 22.911,16.380 21.398,20.335 C19.378,25.617 9.217,31.177 4.752,33.410 ZM25.298,1.051 C23.028,1.051 20.972,2.623 20.098,4.744 C21.108,3.881 22.615,2.788 24.191,2.376 C26.039,1.894 27.539,1.959 28.656,2.163 C27.715,1.473 26.560,1.051 25.298,1.051 ZM24.466,3.395 C22.157,3.997 19.849,6.409 19.690,6.577 C19.682,6.699 19.654,6.818 19.653,6.942 C19.653,7.139 19.709,9.661 22.299,10.579 C24.514,11.364 26.991,11.618 27.602,11.671 C29.638,10.776 30.952,8.804 30.952,6.605 C30.952,5.531 30.626,4.536 30.086,3.685 C29.574,3.435 27.529,2.596 24.466,3.395 ZM33.634,4.186 C32.743,3.683 31.752,3.277 30.903,2.966 C31.608,4.011 32.024,5.260 32.024,6.605 C32.024,6.702 32.007,6.795 32.003,6.891 L36.783,6.891 C36.059,6.082 34.870,4.884 33.634,4.186 ZM28.327,6.056 C28.289,7.314 27.242,8.327 25.952,8.327 C24.662,8.327 23.614,7.314 23.577,6.056 L23.570,6.056 C23.570,6.044 23.574,6.034 23.574,6.022 C23.574,6.011 23.570,6.000 23.570,5.988 L23.577,5.988 C23.614,4.730 24.662,3.716 25.952,3.716 C27.242,3.716 28.289,4.730 28.327,5.988 L28.333,5.988 C28.333,6.000 28.330,6.011 28.330,6.022 C28.330,6.034 28.333,6.044 28.333,6.056 L28.327,6.056 ZM25.952,4.770 C25.243,4.770 24.670,5.329 24.650,6.020 C24.668,6.714 25.242,7.274 25.952,7.274 C26.662,7.274 27.235,6.714 27.254,6.022 C27.235,5.330 26.662,4.770 25.952,4.770 Z" class="cls-1"/>
</svg>
