<svg xmlns="http://www.w3.org/2000/svg" xmlns:xlink="http://www.w3.org/1999/xlink" preserveAspectRatio="xMidYMid" width="25" height="25" viewBox="0 0 25 25">
  <defs>
    <style>
      .cls-1 {
        fill: #000;
        fill-rule: evenodd;
      }
    </style>
  </defs>
  <path d="M5.033,17.961 C6.837,18.415 8.746,18.397 10.553,17.908 C10.748,17.855 10.864,17.655 10.812,17.460 C10.761,17.266 10.561,17.150 10.366,17.204 C6.999,18.115 3.405,17.235 0.893,14.905 C4.237,11.794 9.247,11.305 13.089,13.709 C11.783,15.225 11.076,17.143 11.092,19.156 C11.108,21.318 11.957,23.349 13.482,24.874 C13.624,25.017 13.855,25.016 13.998,24.873 C15.305,23.565 16.151,21.834 16.381,19.999 C16.525,18.854 16.427,17.698 16.105,16.613 L17.636,18.145 C17.778,18.287 18.009,18.287 18.151,18.144 C18.294,18.001 18.295,17.770 18.153,17.627 L16.622,16.096 C17.706,16.418 18.862,16.516 20.006,16.373 C21.841,16.142 23.571,15.295 24.878,13.988 C25.021,13.845 25.021,13.614 24.879,13.472 C23.355,11.946 21.325,11.097 19.163,11.080 C17.151,11.065 15.235,11.772 13.719,13.079 C11.317,9.235 11.805,4.223 14.915,0.877 C17.243,3.389 18.123,6.985 17.212,10.354 C17.159,10.549 17.274,10.749 17.468,10.801 C17.663,10.853 17.863,10.736 17.916,10.542 C18.405,8.734 18.423,6.824 17.968,5.018 C17.499,3.154 16.533,1.451 15.175,0.092 C15.033,-0.050 14.802,-0.049 14.659,0.093 C11.566,3.188 10.679,7.755 12.199,11.671 L11.011,10.482 C10.869,10.340 10.638,10.341 10.495,10.483 C10.352,10.626 10.352,10.858 10.494,10.999 L11.682,12.188 C7.768,10.667 3.204,11.555 0.110,14.650 C-0.033,14.792 -0.033,15.024 0.109,15.166 C1.467,16.524 3.170,17.491 5.033,17.961 ZM13.742,24.087 C11.236,21.310 11.199,17.008 13.657,14.165 L14.708,15.216 C16.372,18.046 15.968,21.635 13.742,24.087 ZM24.091,13.732 C21.641,15.959 18.054,16.364 15.226,14.699 L14.175,13.647 C17.016,11.187 21.317,11.224 24.091,13.732 Z" class="cls-1"/>
</svg>
