<svg xmlns="http://www.w3.org/2000/svg" xmlns:xlink="http://www.w3.org/1999/xlink" preserveAspectRatio="xMidYMid" width="23.157" height="23.625" viewBox="0 0 23.157 23.625">
  <defs>
    <style>
      .cls-1 {
        fill: #000;
        fill-rule: evenodd;
      }
    </style>
  </defs>
  <path d="M5.494,14.492 C5.041,15.296 5.091,16.257 5.543,17.025 C5.471,17.174 5.040,17.982 4.078,18.276 C3.154,18.558 2.006,18.305 0.664,17.524 C0.454,17.402 0.188,17.466 0.071,17.669 C-0.047,17.871 0.028,18.134 0.238,18.257 C1.814,19.174 3.206,19.453 4.378,19.089 C5.323,18.795 5.877,18.151 6.150,17.734 C6.263,17.828 6.385,17.914 6.516,17.990 C6.644,18.065 6.776,18.127 6.910,18.178 C6.683,18.622 6.399,19.422 6.611,20.389 C6.874,21.588 7.806,22.662 9.381,23.579 C9.592,23.701 9.857,23.636 9.975,23.434 C10.092,23.231 10.017,22.968 9.807,22.846 C8.465,22.065 7.677,21.191 7.466,20.248 C7.247,19.277 7.722,18.508 7.823,18.359 C8.718,18.377 9.583,17.945 10.059,17.149 C12.783,17.285 21.068,17.486 22.492,15.036 C24.162,12.160 22.628,8.254 19.001,6.142 C16.599,4.744 15.161,4.381 13.971,5.157 C14.056,3.738 13.029,2.667 10.628,1.269 C7.000,-0.843 2.850,-0.245 1.179,2.631 C-0.244,5.081 4.029,12.190 5.494,14.492 ZM18.575,6.875 C21.776,8.738 23.162,12.128 21.731,14.593 C20.648,16.457 13.276,16.465 9.884,16.285 C10.349,14.670 11.828,9.722 13.067,7.589 C14.407,5.284 15.243,4.935 18.575,6.875 ZM8.894,16.553 C8.860,16.678 8.886,16.814 8.965,16.921 C8.991,16.956 9.023,16.986 9.057,17.011 C8.521,17.547 7.652,17.670 6.942,17.257 C6.232,16.844 5.909,16.027 6.109,15.296 C6.149,15.313 6.190,15.326 6.233,15.331 C6.366,15.347 6.496,15.303 6.588,15.211 C6.722,15.076 8.884,12.898 10.763,10.680 C9.766,13.411 8.945,16.370 8.894,16.553 ZM10.202,2.001 C13.534,3.941 13.645,4.841 12.306,7.147 C11.067,9.279 7.503,13.014 6.331,14.217 C4.497,11.354 0.858,4.937 1.940,3.074 C3.372,0.609 7.001,0.138 10.202,2.001 Z" class="cls-1"/>
</svg>
