<svg xmlns="http://www.w3.org/2000/svg" xmlns:xlink="http://www.w3.org/1999/xlink" preserveAspectRatio="xMidYMid" width="20" height="20" viewBox="0 0 20 20">
  <defs>
    <style>
      .cls-1 {
        fill: #dc3664;
        fill-rule: evenodd;
      }
    </style>
  </defs>
  <path d="M17.072,17.072 C15.183,18.962 12.672,20.000 10.000,20.000 C7.328,20.000 4.817,18.962 2.928,17.072 C1.038,15.183 -0.000,12.672 -0.000,10.000 C-0.000,7.327 1.038,4.817 2.928,2.928 C4.817,1.038 7.328,-0.000 10.000,-0.000 C12.672,-0.000 15.183,1.038 17.072,2.928 C18.962,4.817 20.000,7.327 20.000,10.000 C20.000,12.672 18.962,15.183 17.072,17.072 ZM10.000,1.021 C5.051,1.021 1.021,5.051 1.021,10.000 C1.021,14.949 5.051,18.979 10.000,18.979 C14.949,18.979 18.979,14.949 18.979,10.000 C18.979,5.051 14.949,1.021 10.000,1.021 ZM9.260,9.489 L10.745,9.489 C11.923,9.489 12.881,10.447 12.881,11.630 C12.881,12.800 11.936,13.753 10.770,13.770 C10.766,13.770 10.762,13.770 10.757,13.770 L10.511,13.770 L10.511,14.834 C10.511,15.115 10.281,15.345 10.000,15.345 C9.719,15.345 9.489,15.115 9.489,14.834 L9.489,13.770 L8.077,13.770 C7.796,13.770 7.566,13.540 7.566,13.259 C7.566,12.979 7.796,12.749 8.077,12.749 L10.745,12.749 C11.362,12.749 11.864,12.247 11.864,11.630 C11.864,11.013 11.362,10.511 10.745,10.511 L9.260,10.511 C8.081,10.511 7.119,9.549 7.119,8.370 C7.119,7.191 8.081,6.230 9.260,6.230 L9.494,6.230 L9.494,5.187 C9.494,4.906 9.723,4.676 10.004,4.676 C10.285,4.676 10.515,4.906 10.515,5.187 L10.515,6.230 L11.881,6.230 C12.162,6.230 12.391,6.459 12.391,6.740 C12.391,7.021 12.162,7.251 11.881,7.251 L9.260,7.251 C8.642,7.251 8.140,7.753 8.140,8.370 C8.140,8.987 8.642,9.489 9.260,9.489 Z" class="cls-1"/>
</svg>
