<svg xmlns="http://www.w3.org/2000/svg" xmlns:xlink="http://www.w3.org/1999/xlink" preserveAspectRatio="xMidYMid" width="40" height="40" viewBox="0 0 40 40">
  <defs>
    <style>
      .cls-1 {
        fill: #9a9a9a;
        fill-rule: evenodd;
      }
    </style>
  </defs>
  <path d="M12.912,-0.003 L3.092,-0.003 C1.386,-0.003 -0.002,1.385 -0.002,3.090 L-0.002,6.358 L-0.002,12.911 C-0.002,14.617 1.386,16.004 3.092,16.004 L12.912,16.004 C14.618,16.004 16.006,14.617 16.006,12.911 L16.006,6.358 L16.006,3.090 C16.006,1.385 14.618,-0.003 12.912,-0.003 ZM13.800,1.842 L14.154,1.841 L14.154,2.193 L14.154,4.554 L11.449,4.563 L11.439,1.849 L13.800,1.842 ZM5.718,6.358 C6.230,5.648 7.062,5.183 8.002,5.183 C8.942,5.183 9.774,5.648 10.286,6.358 C10.620,6.821 10.820,7.387 10.820,8.000 C10.820,9.554 9.555,10.818 8.002,10.818 C6.449,10.818 5.185,9.554 5.185,8.000 C5.185,7.387 5.384,6.821 5.718,6.358 ZM14.446,12.911 C14.446,13.757 13.758,14.444 12.912,14.444 L3.092,14.444 C2.246,14.444 1.558,13.757 1.558,12.911 L1.558,6.358 L3.948,6.358 C3.741,6.866 3.625,7.419 3.625,8.000 C3.625,10.414 5.588,12.378 8.002,12.378 C10.416,12.378 12.379,10.414 12.379,8.000 C12.379,7.419 12.262,6.866 12.056,6.358 L14.446,6.358 L14.446,12.911 Z" transform="translate(12 12)" class="cls-1"/>
</svg>
