<svg xmlns="http://www.w3.org/2000/svg" xmlns:xlink="http://www.w3.org/1999/xlink" preserveAspectRatio="xMidYMid" width="49" height="5" viewBox="0 0 49 5">
  <defs>
    <style>
      .cls-1 {
        fill: #e8e8e8;
        fill-rule: evenodd;
      }
    </style>
  </defs>
  <path d="M46.500,5.000 C45.119,5.000 44.000,3.881 44.000,2.500 C44.000,1.119 45.119,-0.000 46.500,-0.000 C47.881,-0.000 49.000,1.119 49.000,2.500 C49.000,3.881 47.881,5.000 46.500,5.000 ZM4.950,3.000 C4.718,4.141 3.709,5.000 2.500,5.000 C1.119,5.000 -0.000,3.881 -0.000,2.500 C-0.000,1.119 1.119,-0.000 2.500,-0.000 C3.709,-0.000 4.718,0.859 4.950,2.000 L44.000,2.000 L44.000,2.500 L44.000,3.000 L4.950,3.000 Z" class="cls-1"/>
</svg>
