<svg xmlns="http://www.w3.org/2000/svg" xmlns:xlink="http://www.w3.org/1999/xlink" preserveAspectRatio="xMidYMid" width="819.125" height="257.906" viewBox="0 0 819.125 257.906">
  <defs>
    <style>
      .cls-1 {
        fill: #333333;
        fill-rule: evenodd;
      }
    </style>
  </defs>
  <g>
    <path d="M817.264,216.224 C816.025,219.491 814.296,222.390 812.075,224.922 C809.853,227.455 807.159,229.474 803.991,230.978 C800.823,232.483 797.344,233.235 793.558,233.235 L780.885,233.235 L780.885,257.237 L759.582,257.237 L759.582,179.065 L793.011,179.065 C796.797,179.065 800.293,179.855 803.499,181.432 C806.703,183.012 809.453,185.066 811.747,187.598 C814.041,190.130 815.844,193.031 817.155,196.296 C818.466,199.563 819.121,202.847 819.121,206.150 C819.121,209.601 818.502,212.959 817.264,216.224 ZM795.524,199.544 C794.213,198.371 792.902,197.782 791.591,197.782 L780.885,197.782 L780.885,214.518 L792.137,214.518 C793.448,214.518 794.667,213.912 795.797,212.701 C796.925,211.490 797.491,209.307 797.491,206.150 C797.491,202.921 796.835,200.719 795.524,199.544 ZM753.133,147.136 L731.939,147.136 L731.939,121.042 L705.610,68.964 L728.661,68.964 L742.536,102.765 L756.738,68.964 L779.898,68.964 L753.133,121.262 L753.133,147.136 ZM707.690,237.199 C709.438,236.098 710.858,234.649 711.950,232.850 C713.043,231.052 713.843,228.979 714.354,226.629 C714.862,224.281 715.118,221.822 715.118,219.252 L715.118,179.065 L736.422,179.065 L736.422,219.252 C736.422,224.685 735.729,229.767 734.346,234.501 C732.962,239.236 730.813,243.328 727.900,246.777 C724.987,250.228 721.327,252.943 716.921,254.925 C712.514,256.907 707.324,257.898 701.353,257.898 C695.162,257.898 689.864,256.852 685.458,254.760 C681.050,252.668 677.428,249.860 674.588,246.337 C671.747,242.814 669.672,238.723 668.361,234.061 C667.050,229.400 666.394,224.465 666.394,219.252 L666.394,179.065 L687.697,179.065 L687.697,219.252 C687.697,221.822 687.952,224.300 688.462,226.684 C688.971,229.070 689.773,231.162 690.866,232.960 C691.958,234.759 693.359,236.191 695.072,237.254 C696.782,238.319 698.876,238.850 701.353,238.850 C703.828,238.850 705.942,238.300 707.690,237.199 ZM636.786,68.964 L691.082,68.964 L691.082,87.681 L658.089,87.681 L658.089,98.691 L686.275,98.691 L686.275,116.087 L658.089,116.087 L658.089,128.419 L692.065,128.419 L692.065,147.136 L636.786,147.136 L636.786,68.964 ZM644.709,203.838 C646.566,208.610 647.494,213.491 647.494,218.481 C647.494,223.620 646.511,228.556 644.545,233.290 C642.578,238.024 639.847,242.208 636.351,245.842 C632.855,249.475 628.685,252.393 623.842,254.595 C618.998,256.797 613.699,257.898 607.947,257.898 C602.048,257.898 596.694,256.761 591.888,254.485 C587.081,252.210 582.965,249.219 579.543,245.511 C576.118,241.806 573.461,237.567 571.568,232.795 C569.673,228.024 568.727,223.106 568.727,218.041 C568.727,212.904 569.710,207.950 571.677,203.177 C573.643,198.407 576.392,194.204 579.925,190.571 C583.457,186.938 587.644,184.039 592.488,181.873 C597.331,179.709 602.630,178.625 608.384,178.625 C614.283,178.625 619.636,179.764 624.443,182.038 C629.250,184.314 633.364,187.323 636.788,191.066 C640.211,194.810 642.851,199.068 644.709,203.838 ZM624.771,210.389 C624.042,207.931 622.931,205.765 621.439,203.893 C619.945,202.021 618.088,200.518 615.867,199.379 C613.645,198.242 611.042,197.672 608.056,197.672 C604.997,197.672 602.357,198.261 600.136,199.434 C597.913,200.609 596.075,202.169 594.619,204.113 C593.161,206.059 592.087,208.261 591.396,210.719 C590.703,213.179 590.358,215.693 590.358,218.261 C590.358,220.904 590.722,223.455 591.451,225.913 C592.178,228.373 593.270,230.556 594.728,232.464 C596.184,234.374 598.022,235.915 600.245,237.089 C602.466,238.264 605.106,238.850 608.165,238.850 C611.224,238.850 613.882,238.245 616.140,237.034 C618.397,235.822 620.237,234.245 621.657,232.299 C623.078,230.355 624.133,228.134 624.826,225.638 C625.517,223.144 625.863,220.611 625.863,218.041 C625.863,215.399 625.498,212.849 624.771,210.389 ZM605.870,136.401 C602.446,139.814 598.332,142.457 593.525,144.328 C588.718,146.200 583.365,147.136 577.466,147.136 L547.641,147.136 L547.641,68.964 L577.466,68.964 C583.874,68.964 589.519,69.993 594.399,72.047 C599.278,74.103 603.357,76.891 606.635,80.415 C609.912,83.938 612.387,88.067 614.064,92.801 C615.738,97.535 616.576,102.583 616.576,107.940 C616.576,113.885 615.648,119.263 613.791,124.070 C611.933,128.878 609.293,132.988 605.870,136.401 ZM593.744,99.682 C592.941,97.188 591.794,95.058 590.302,93.297 C588.809,91.535 586.970,90.159 584.785,89.168 C582.600,88.177 580.159,87.681 577.466,87.681 L568.945,87.681 L568.945,128.419 L577.466,128.419 C580.233,128.419 582.710,127.906 584.895,126.877 C587.080,125.850 588.918,124.419 590.412,122.583 C591.904,120.750 593.034,118.584 593.798,116.087 C594.563,113.593 594.945,110.877 594.945,107.940 C594.945,104.931 594.544,102.179 593.744,99.682 ZM550.047,206.150 C550.047,210.702 549.064,214.941 547.097,218.867 C545.131,222.794 542.400,226.006 538.904,228.501 L555.291,257.237 L531.257,257.237 L517.601,233.235 L509.626,233.235 L509.626,257.237 L488.322,257.237 L488.322,179.065 L523.937,179.065 C527.723,179.065 531.219,179.855 534.425,181.432 C537.629,183.012 540.379,185.066 542.673,187.598 C544.967,190.130 546.770,193.031 548.081,196.296 C549.392,199.563 550.047,202.847 550.047,206.150 ZM526.450,199.929 C525.139,198.498 523.828,197.782 522.517,197.782 L509.626,197.782 L509.626,214.518 L523.063,214.518 C524.374,214.518 525.593,213.785 526.723,212.316 C527.851,210.848 528.416,208.793 528.416,206.150 C528.416,203.435 527.761,201.361 526.450,199.929 ZM472.808,68.964 L494.111,68.964 L494.111,128.419 L529.289,128.419 L529.289,147.136 L472.808,147.136 L472.808,68.964 ZM449.321,250.741 C443.786,255.439 437.413,257.788 430.203,257.788 C425.178,257.788 420.371,256.890 415.782,255.090 C411.194,253.292 407.188,250.669 403.765,247.218 C400.341,243.769 397.610,239.549 395.572,234.556 C393.532,229.566 392.513,223.876 392.513,217.491 C392.513,211.986 393.532,206.866 395.572,202.131 C397.610,197.397 400.414,193.287 403.984,189.800 C407.551,186.315 411.757,183.562 416.602,181.543 C421.444,179.525 426.670,178.515 432.279,178.515 C435.775,178.515 439.124,178.900 442.329,179.671 C445.534,180.442 448.502,181.580 451.233,183.084 C453.964,184.589 456.422,186.387 458.607,188.479 C460.792,190.571 462.576,192.938 463.960,195.580 L448.120,207.802 C446.590,204.719 444.296,202.242 441.237,200.370 C438.178,198.498 434.937,197.562 431.514,197.562 C428.964,197.562 426.634,198.077 424.522,199.104 C422.409,200.132 420.589,201.564 419.060,203.398 C417.530,205.233 416.329,207.416 415.455,209.949 C414.581,212.481 414.144,215.252 414.144,218.261 C414.144,221.344 414.581,224.134 415.455,226.629 C416.329,229.125 417.547,231.272 419.114,233.070 C420.680,234.869 422.556,236.263 424.741,237.254 C426.926,238.245 429.365,238.740 432.060,238.740 C438.250,238.740 443.712,236.172 448.447,231.033 L435.010,231.033 L435.010,215.619 L466.910,215.619 L466.910,257.237 L449.321,257.237 L449.321,250.741 ZM396.664,68.964 L450.960,68.964 L450.960,87.681 L417.967,87.681 L417.967,98.691 L446.153,98.691 L446.153,116.087 L417.967,116.087 L417.967,128.419 L451.943,128.419 L451.943,147.136 L396.664,147.136 L396.664,68.964 Z" class="cls-1"/>
    <path d="M648.605,15.380 L648.605,13.436 L656.417,13.436 L656.417,26.000 L654.293,26.000 L654.293,22.256 C651.917,24.872 649.181,26.180 646.085,26.180 C644.357,26.180 642.766,25.808 641.315,25.064 C639.862,24.320 638.602,23.336 637.535,22.112 C636.466,20.888 635.632,19.502 635.033,17.954 C634.432,16.406 634.133,14.816 634.133,13.184 C634.133,11.480 634.426,9.848 635.015,8.288 C635.602,6.728 636.424,5.354 637.481,4.166 C638.536,2.978 639.785,2.030 641.225,1.322 C642.665,0.614 644.236,0.260 645.941,0.260 C647.188,0.260 648.328,0.398 649.361,0.674 C650.392,0.950 651.310,1.334 652.115,1.826 C652.918,2.318 653.614,2.906 654.203,3.590 C654.790,4.274 655.288,5.024 655.697,5.840 L653.753,7.136 C652.912,5.552 651.820,4.388 650.477,3.644 C649.132,2.900 647.608,2.528 645.905,2.528 C644.488,2.528 643.210,2.828 642.071,3.428 C640.930,4.028 639.958,4.826 639.155,5.822 C638.350,6.818 637.733,7.958 637.301,9.242 C636.869,10.526 636.653,11.852 636.653,13.220 C636.653,14.660 636.898,16.028 637.391,17.324 C637.882,18.620 638.561,19.754 639.425,20.726 C640.289,21.698 641.302,22.472 642.467,23.048 C643.630,23.624 644.897,23.912 646.265,23.912 C647.728,23.912 649.127,23.570 650.459,22.886 C651.791,22.202 653.069,21.116 654.293,19.628 L654.293,15.380 L648.605,15.380 ZM606.953,5.120 L606.953,26.000 L604.433,26.000 L604.433,0.440 L606.377,0.440 L623.297,21.716 L623.297,0.476 L625.817,0.476 L625.817,26.000 L623.621,26.000 L606.953,5.120 ZM591.906,0.440 L594.426,0.440 L594.426,26.000 L591.906,26.000 L591.906,0.440 ZM575.382,26.000 L572.862,26.000 L572.862,2.672 L563.754,2.672 L563.754,0.440 L584.490,0.440 L584.490,2.672 L575.382,2.672 L575.382,26.000 ZM541.758,0.440 L544.278,0.440 L544.278,23.768 L559.038,23.768 L559.038,26.000 L541.758,26.000 L541.758,0.440 ZM529.717,22.328 C528.865,23.504 527.755,24.440 526.387,25.136 C525.019,25.832 523.350,26.180 521.383,26.180 C519.367,26.180 517.669,25.814 516.289,25.082 C514.908,24.350 513.799,23.384 512.959,22.184 C512.118,20.984 511.519,19.616 511.159,18.080 C510.799,16.544 510.619,14.960 510.619,13.328 L510.619,0.440 L513.103,0.440 L513.103,13.328 C513.103,14.672 513.234,15.980 513.499,17.252 C513.763,18.524 514.213,19.652 514.849,20.636 C515.484,21.620 516.330,22.412 517.387,23.012 C518.443,23.612 519.763,23.912 521.347,23.912 C522.954,23.912 524.293,23.606 525.361,22.994 C526.428,22.382 527.281,21.578 527.917,20.582 C528.552,19.586 528.997,18.452 529.249,17.180 C529.501,15.908 529.627,14.624 529.627,13.328 L529.627,0.440 L532.147,0.440 L532.147,13.328 C532.147,15.056 531.954,16.694 531.571,18.242 C531.187,19.790 530.568,21.152 529.717,22.328 ZM500.359,24.524 C499.543,25.100 498.571,25.526 497.443,25.802 C496.315,26.078 495.079,26.216 493.735,26.216 C489.775,26.216 486.355,24.980 483.475,22.508 L484.735,20.456 C485.191,20.936 485.737,21.392 486.373,21.824 C487.009,22.256 487.717,22.634 488.497,22.958 C489.277,23.282 490.111,23.534 490.999,23.714 C491.887,23.894 492.823,23.984 493.807,23.984 C495.847,23.984 497.437,23.618 498.577,22.886 C499.717,22.154 500.287,21.044 500.287,19.556 C500.287,18.764 500.125,18.098 499.801,17.558 C499.477,17.018 498.991,16.550 498.343,16.154 C497.695,15.758 496.891,15.416 495.931,15.128 C494.971,14.840 493.855,14.552 492.583,14.264 C491.239,13.952 490.063,13.628 489.055,13.292 C488.047,12.956 487.195,12.536 486.499,12.032 C485.803,11.528 485.281,10.922 484.933,10.214 C484.585,9.506 484.411,8.636 484.411,7.604 C484.411,6.428 484.633,5.378 485.077,4.454 C485.521,3.530 486.151,2.762 486.967,2.150 C487.783,1.538 488.743,1.070 489.847,0.746 C490.951,0.422 492.175,0.260 493.519,0.260 C495.223,0.260 496.741,0.518 498.073,1.034 C499.405,1.550 500.611,2.276 501.691,3.212 L500.467,5.228 C499.747,4.412 498.787,3.752 497.587,3.248 C496.387,2.744 495.019,2.492 493.483,2.492 C491.227,2.492 489.583,2.918 488.551,3.770 C487.519,4.622 487.003,5.780 487.003,7.244 C487.003,8.012 487.141,8.642 487.417,9.134 C487.693,9.626 488.119,10.052 488.695,10.412 C489.271,10.772 490.009,11.084 490.909,11.348 C491.809,11.612 492.871,11.876 494.095,12.140 C495.463,12.428 496.693,12.752 497.785,13.112 C498.877,13.472 499.807,13.922 500.575,14.462 C501.343,15.002 501.931,15.656 502.339,16.424 C502.747,17.192 502.951,18.152 502.951,19.304 C502.951,20.480 502.723,21.500 502.267,22.364 C501.811,23.228 501.175,23.948 500.359,24.524 ZM456.655,5.120 L456.655,26.000 L454.135,26.000 L454.135,0.440 L456.079,0.440 L472.999,21.716 L472.999,0.476 L475.519,0.476 L475.519,26.000 L473.323,26.000 L456.655,5.120 ZM442.346,22.274 C441.277,23.462 440.011,24.410 438.548,25.118 C437.083,25.826 435.499,26.180 433.796,26.180 C432.019,26.180 430.394,25.814 428.918,25.082 C427.442,24.350 426.175,23.378 425.120,22.166 C424.063,20.954 423.248,19.568 422.672,18.008 C422.096,16.448 421.808,14.852 421.808,13.220 C421.808,11.516 422.114,9.884 422.726,8.324 C423.338,6.764 424.184,5.384 425.264,4.184 C426.344,2.984 427.615,2.030 429.080,1.322 C430.543,0.614 432.127,0.260 433.832,0.260 C435.607,0.260 437.234,0.638 438.710,1.394 C440.186,2.150 441.446,3.140 442.490,4.364 C443.534,5.588 444.344,6.974 444.920,8.522 C445.496,10.070 445.784,11.648 445.784,13.256 C445.784,14.960 445.478,16.592 444.866,18.152 C444.254,19.712 443.413,21.086 442.346,22.274 ZM442.562,9.206 C442.094,7.922 441.439,6.788 440.600,5.804 C439.759,4.820 438.764,4.034 437.612,3.446 C436.460,2.858 435.187,2.564 433.796,2.564 C432.356,2.564 431.047,2.870 429.872,3.482 C428.695,4.094 427.699,4.904 426.884,5.912 C426.067,6.920 425.437,8.060 424.994,9.332 C424.549,10.604 424.328,11.900 424.328,13.220 C424.328,14.612 424.555,15.950 425.012,17.234 C425.467,18.518 426.115,19.658 426.956,20.654 C427.795,21.650 428.792,22.442 429.944,23.030 C431.096,23.618 432.379,23.912 433.796,23.912 C435.236,23.912 436.543,23.600 437.720,22.976 C438.895,22.352 439.891,21.536 440.708,20.528 C441.523,19.520 442.153,18.380 442.598,17.108 C443.041,15.836 443.264,14.540 443.264,13.220 C443.264,11.828 443.030,10.490 442.562,9.206 ZM398.786,20.690 C399.638,21.686 400.646,22.478 401.810,23.066 C402.974,23.654 404.240,23.948 405.608,23.948 C406.328,23.948 407.066,23.858 407.822,23.678 C408.578,23.498 409.310,23.210 410.018,22.814 C410.726,22.418 411.380,21.926 411.980,21.338 C412.580,20.750 413.084,20.036 413.492,19.196 L415.580,20.276 C415.172,21.236 414.596,22.082 413.852,22.814 C413.108,23.546 412.280,24.164 411.368,24.668 C410.456,25.172 409.490,25.556 408.470,25.820 C407.450,26.084 406.448,26.216 405.464,26.216 C403.712,26.216 402.104,25.832 400.640,25.064 C399.176,24.296 397.916,23.294 396.860,22.058 C395.804,20.822 394.982,19.418 394.394,17.846 C393.806,16.274 393.512,14.672 393.512,13.040 C393.512,11.504 393.782,9.974 394.322,8.450 C394.862,6.926 395.648,5.564 396.680,4.364 C397.712,3.164 398.984,2.186 400.496,1.430 C402.008,0.674 403.724,0.296 405.644,0.296 C407.924,0.296 409.874,0.812 411.494,1.844 C413.114,2.876 414.308,4.220 415.076,5.876 L413.096,7.100 C412.688,6.260 412.190,5.552 411.602,4.976 C411.014,4.400 410.384,3.932 409.712,3.572 C409.040,3.212 408.344,2.954 407.624,2.798 C406.904,2.642 406.196,2.564 405.500,2.564 C403.964,2.564 402.608,2.876 401.432,3.500 C400.256,4.124 399.266,4.940 398.462,5.948 C397.658,6.956 397.052,8.090 396.644,9.350 C396.236,10.610 396.032,11.888 396.032,13.184 C396.032,14.600 396.278,15.956 396.770,17.252 C397.262,18.548 397.934,19.694 398.786,20.690 Z" class="cls-1"/>
    <path d="M-0.000,237.231 L278.164,198.591 L350.281,230.042 L278.164,221.955 L-0.000,237.231 ZM17.021,216.563 L278.164,165.343 L339.531,200.388 L278.612,188.706 L17.021,216.563 ZM29.563,195.895 L278.164,132.993 L328.780,174.329 L278.164,155.458 L29.563,195.895 ZM322.509,142.878 L278.164,124.007 L30.459,175.227 L278.164,99.745 L322.509,142.878 ZM28.667,153.661 L278.164,67.395 L323.405,116.818 L278.164,92.556 L28.667,153.661 ZM30.459,133.892 L278.164,33.248 L320.718,88.063 L278.164,56.612 L30.459,133.892 ZM31.355,112.325 L278.164,-0.000 L317.134,57.510 L278.164,24.262 L31.355,112.325 ZM357.003,257.000 L275.925,251.608 L-0.000,257.000 L276.820,230.042 L357.003,257.000 Z" class="cls-1"/>
  </g>
</svg>
