<svg xmlns="http://www.w3.org/2000/svg" xmlns:xlink="http://www.w3.org/1999/xlink" preserveAspectRatio="xMidYMid" width="40" height="18" viewBox="0 0 40 18">
  <defs>
    <style>
      .cls-1 {
        fill: #1f3664;
        fill-rule: evenodd;
      }
    </style>
  </defs>
  <path d="M39.203,18.000 L13.384,18.000 C12.944,18.000 12.587,17.646 12.587,17.209 L12.587,15.717 L8.048,15.717 C7.608,15.717 7.251,15.363 7.251,14.927 C7.251,14.490 7.608,14.136 8.048,14.136 L12.587,14.136 L12.587,3.864 L4.992,3.864 C4.552,3.864 4.196,3.510 4.196,3.073 C4.196,2.636 4.552,2.282 4.992,2.282 L12.587,2.282 L12.587,0.791 C12.587,0.354 12.944,-0.000 13.384,-0.000 L39.203,-0.000 C39.643,-0.000 40.000,0.354 40.000,0.791 L40.000,17.209 C40.000,17.646 39.643,18.000 39.203,18.000 ZM15.401,1.582 L26.295,10.499 L37.238,1.582 L15.401,1.582 ZM38.406,2.676 L26.799,12.134 C26.652,12.254 26.473,12.314 26.293,12.314 C26.114,12.314 25.934,12.253 25.786,12.133 L14.181,2.632 L14.181,16.418 L38.406,16.418 L38.406,2.676 ZM10.146,8.920 C10.146,9.357 9.789,9.711 9.349,9.711 L0.797,9.711 C0.357,9.711 -0.000,9.357 -0.000,8.920 C-0.000,8.483 0.357,8.129 0.797,8.129 L9.349,8.129 C9.789,8.129 10.146,8.483 10.146,8.920 ZM4.992,14.136 L5.418,14.136 C5.858,14.136 6.215,14.490 6.215,14.927 C6.215,15.363 5.858,15.717 5.418,15.717 L4.992,15.717 C4.552,15.717 4.196,15.363 4.196,14.927 C4.196,14.490 4.552,14.136 4.992,14.136 Z" class="cls-1"/>
</svg>
