<svg xmlns="http://www.w3.org/2000/svg" xmlns:xlink="http://www.w3.org/1999/xlink" preserveAspectRatio="xMidYMid" width="22" height="22" viewBox="0 0 22 22">
  <defs>
    <style>
      .cls-1 {
        fill: #fff;
        fill-rule: evenodd;
      }
    </style>
  </defs>
  <path d="M21.478,10.419 C21.441,10.424 21.409,10.429 21.372,10.429 C21.069,10.429 20.804,10.215 20.753,9.909 C20.386,7.745 19.363,5.772 17.791,4.202 C16.219,2.638 14.243,1.611 12.076,1.245 C11.732,1.184 11.504,0.864 11.560,0.520 C11.620,0.181 11.941,-0.051 12.281,0.009 C14.708,0.423 16.917,1.565 18.675,3.320 C20.432,5.075 21.576,7.281 21.990,9.704 C22.050,10.043 21.818,10.369 21.478,10.419 ZM12.109,3.998 C13.583,4.249 14.927,4.945 15.991,6.009 C17.056,7.072 17.754,8.414 18.005,9.886 C18.061,10.229 17.833,10.554 17.489,10.610 C17.452,10.615 17.419,10.619 17.382,10.619 C17.080,10.619 16.814,10.405 16.763,10.099 C16.554,8.883 15.982,7.778 15.099,6.895 C14.215,6.013 13.108,5.437 11.890,5.233 C11.546,5.177 11.323,4.848 11.383,4.509 C11.444,4.170 11.765,3.942 12.109,3.998 ZM7.942,8.135 C7.598,8.483 7.245,8.845 6.863,9.194 C7.147,9.820 7.537,10.438 8.119,11.172 C9.319,12.644 10.569,13.781 11.946,14.654 C12.081,14.738 12.239,14.817 12.406,14.900 C12.522,14.960 12.643,15.021 12.764,15.086 L14.234,13.623 C14.703,13.155 15.252,12.908 15.824,12.908 C16.401,12.908 16.945,13.159 17.396,13.628 L19.949,16.186 C20.418,16.651 20.665,17.203 20.665,17.779 C20.665,18.350 20.423,18.907 19.963,19.386 C19.763,19.595 19.558,19.794 19.358,19.985 C19.065,20.268 18.786,20.532 18.544,20.825 C18.540,20.834 18.530,20.839 18.526,20.848 C17.819,21.614 16.917,22.000 15.843,22.000 C15.750,22.000 15.647,21.995 15.550,21.991 C13.955,21.888 12.527,21.289 11.458,20.783 C8.658,19.432 6.208,17.515 4.171,15.086 C2.492,13.071 1.367,11.190 0.614,9.161 C0.307,8.335 -0.093,7.072 0.018,5.716 C0.093,4.875 0.432,4.151 1.027,3.557 L2.608,1.964 C2.613,1.960 2.613,1.960 2.618,1.955 C3.083,1.509 3.632,1.272 4.199,1.272 C4.766,1.272 5.306,1.509 5.757,1.955 C6.059,2.234 6.352,2.531 6.631,2.819 C6.770,2.967 6.919,3.116 7.063,3.259 L8.333,4.527 C9.309,5.502 9.309,6.765 8.333,7.740 C8.203,7.870 8.072,8.005 7.942,8.135 ZM7.449,5.414 L6.180,4.146 C6.031,3.993 5.882,3.845 5.738,3.696 C5.454,3.404 5.185,3.130 4.901,2.865 C4.896,2.860 4.892,2.856 4.887,2.851 C4.738,2.702 4.501,2.526 4.208,2.526 C3.971,2.526 3.729,2.642 3.501,2.856 L1.916,4.439 C1.530,4.825 1.320,5.275 1.274,5.818 C1.204,6.668 1.362,7.569 1.795,8.725 C2.497,10.619 3.557,12.383 5.143,14.292 C7.063,16.581 9.374,18.387 12.006,19.660 C12.969,20.119 14.252,20.658 15.634,20.746 C15.703,20.751 15.777,20.751 15.847,20.751 C16.573,20.751 17.126,20.514 17.596,20.013 C17.884,19.674 18.191,19.372 18.493,19.084 C18.693,18.889 18.879,18.712 19.061,18.518 C19.535,18.025 19.535,17.537 19.056,17.064 L16.494,14.506 C16.489,14.501 16.489,14.501 16.484,14.496 C16.340,14.339 16.103,14.158 15.815,14.158 C15.522,14.158 15.271,14.348 15.113,14.506 L13.522,16.094 C13.443,16.172 13.201,16.414 12.815,16.414 C12.662,16.414 12.513,16.377 12.355,16.298 C12.337,16.289 12.318,16.275 12.299,16.265 C12.164,16.182 12.006,16.103 11.839,16.019 C11.653,15.926 11.458,15.829 11.267,15.708 C9.774,14.765 8.421,13.535 7.138,11.957 L7.133,11.952 C6.426,11.056 5.961,10.303 5.631,9.505 C5.626,9.491 5.622,9.477 5.617,9.463 C5.533,9.198 5.459,8.808 5.859,8.409 C5.864,8.400 5.873,8.395 5.882,8.386 C6.287,8.023 6.659,7.652 7.049,7.253 C7.184,7.123 7.314,6.988 7.449,6.854 C7.942,6.361 7.942,5.906 7.449,5.414 Z" class="cls-1"/>
</svg>
