<svg xmlns="http://www.w3.org/2000/svg" xmlns:xlink="http://www.w3.org/1999/xlink" preserveAspectRatio="xMidYMid" width="18.031" height="18" viewBox="0 0 18.031 18">
  <defs>
    <style>
      .cls-1 {
        fill: #1f3664;
        fill-rule: evenodd;
      }
    </style>
  </defs>
  <path d="M17.844,17.082 L13.469,12.708 C14.642,11.359 15.353,9.599 15.353,7.675 C15.353,3.440 11.908,-0.000 7.676,-0.000 C3.441,-0.000 -0.000,3.444 -0.000,7.675 C-0.000,11.905 3.445,15.350 7.676,15.350 C9.600,15.350 11.361,14.639 12.710,13.466 L17.085,17.840 C17.189,17.944 17.329,18.000 17.465,18.000 C17.600,18.000 17.740,17.948 17.844,17.840 C18.051,17.633 18.051,17.290 17.844,17.082 ZM1.074,7.675 C1.074,4.035 4.036,1.077 7.672,1.077 C11.313,1.077 14.271,4.039 14.271,7.675 C14.271,11.311 11.313,14.276 7.672,14.276 C4.036,14.276 1.074,11.315 1.074,7.675 Z" class="cls-1"/>
</svg>
