<svg xmlns="http://www.w3.org/2000/svg" xmlns:xlink="http://www.w3.org/1999/xlink" preserveAspectRatio="xMidYMid" width="22" height="22" viewBox="0 0 22 22">
  <defs>
    <style>
      .cls-1 {
        fill: #000;
        fill-rule: evenodd;
      }
    </style>
  </defs>
  <path d="M21.627,11.373 L17.522,11.373 C17.466,11.373 17.391,11.354 17.335,11.317 C17.260,12.789 16.701,14.113 15.786,15.157 L17.932,17.320 C18.081,17.469 18.081,17.693 17.932,17.842 C17.857,17.917 17.764,17.954 17.671,17.954 C17.578,17.954 17.484,17.917 17.410,17.842 L15.264,15.698 C14.219,16.649 12.838,17.264 11.327,17.339 C11.364,17.395 11.382,17.451 11.382,17.525 L11.382,21.627 C11.382,21.832 11.214,22.000 11.009,22.000 C10.804,22.000 10.636,21.832 10.636,21.627 L10.636,17.525 C10.636,17.469 10.655,17.395 10.692,17.339 C9.199,17.264 7.856,16.668 6.811,15.754 L4.721,17.842 C4.646,17.917 4.553,17.954 4.460,17.954 C4.366,17.954 4.273,17.917 4.198,17.842 C4.049,17.693 4.049,17.469 4.198,17.320 L6.288,15.213 C5.337,14.169 4.740,12.789 4.665,11.298 C4.609,11.335 4.553,11.354 4.478,11.354 L0.373,11.354 C0.168,11.354 -0.000,11.186 -0.000,10.981 C-0.000,10.776 0.168,10.608 0.373,10.608 L4.478,10.608 C4.534,10.608 4.609,10.627 4.665,10.664 C4.740,9.154 5.355,7.774 6.307,6.730 L4.068,4.493 C3.919,4.344 3.919,4.120 4.068,3.971 C4.217,3.822 4.441,3.822 4.590,3.971 L6.848,6.208 C7.893,5.313 9.218,4.735 10.692,4.661 C10.655,4.605 10.636,4.549 10.636,4.474 L10.636,0.373 C10.636,0.168 10.804,-0.000 11.009,-0.000 C11.214,-0.000 11.382,0.168 11.382,0.373 L11.382,4.474 C11.382,4.530 11.364,4.605 11.327,4.661 C12.838,4.735 14.200,5.351 15.245,6.283 L17.428,4.101 C17.578,3.952 17.801,3.952 17.951,4.101 C18.100,4.250 18.100,4.474 17.951,4.624 L15.768,6.805 C16.701,7.849 17.279,9.210 17.354,10.683 C17.410,10.645 17.466,10.627 17.540,10.627 L21.645,10.627 C21.851,10.627 22.000,10.795 22.000,11.000 C22.000,11.205 21.832,11.373 21.627,11.373 ZM11.009,5.406 C7.930,5.406 5.411,7.924 5.411,11.000 C5.411,12.491 6.008,13.871 6.979,14.878 C7.016,14.896 7.053,14.915 7.091,14.952 C7.128,14.989 7.147,15.027 7.165,15.064 C8.173,16.015 9.517,16.593 11.009,16.593 C14.088,16.593 16.607,14.076 16.607,11.000 C16.607,7.924 14.088,5.406 11.009,5.406 ZM8.173,14.524 C8.098,14.524 8.005,14.486 7.930,14.430 C6.923,13.535 6.382,12.323 6.382,11.000 C6.382,10.608 6.438,10.217 6.550,9.807 C6.587,9.620 6.792,9.490 6.997,9.545 C7.184,9.583 7.315,9.788 7.259,9.993 C7.165,10.347 7.128,10.683 7.128,11.000 C7.128,12.100 7.595,13.125 8.416,13.871 C8.584,14.001 8.584,14.244 8.453,14.393 C8.378,14.486 8.266,14.524 8.173,14.524 ZM7.893,8.707 C7.893,8.725 7.874,8.744 7.856,8.763 C7.781,8.856 7.669,8.912 7.557,8.912 C7.483,8.912 7.408,8.893 7.333,8.837 C7.165,8.707 7.128,8.483 7.259,8.315 C7.277,8.296 7.296,8.259 7.315,8.240 C7.333,8.203 7.371,8.184 7.371,8.166 C7.464,7.980 7.688,7.905 7.874,7.998 C8.061,8.091 8.136,8.315 8.042,8.501 C7.986,8.595 7.930,8.651 7.893,8.707 Z" class="cls-1"/>
</svg>
