<svg xmlns="http://www.w3.org/2000/svg" xmlns:xlink="http://www.w3.org/1999/xlink" preserveAspectRatio="xMidYMid" width="17" height="14" viewBox="0 0 17 14">
      <defs>
      <style>
        .cls-1 {
          fill: #2e2f37;
          fill-rule: evenodd;
        }
      </style>
      </defs>
      <path d="M16.662,1.795 C16.078,2.054 15.450,2.229 14.791,2.307 C15.464,1.905 15.980,1.266 16.223,0.506 C15.593,0.879 14.897,1.150 14.155,1.295 C13.562,0.663 12.715,0.268 11.778,0.268 C9.981,0.268 8.523,1.725 8.523,3.525 C8.523,3.779 8.551,4.028 8.607,4.266 C5.901,4.130 3.502,2.834 1.895,0.863 C1.615,1.345 1.454,1.905 1.454,2.501 C1.454,3.630 2.029,4.627 2.903,5.213 C2.370,5.196 1.867,5.048 1.427,4.806 L1.427,4.846 C1.427,6.425 2.550,7.742 4.040,8.040 C3.767,8.117 3.479,8.155 3.182,8.155 C2.972,8.155 2.768,8.135 2.570,8.097 C2.983,9.391 4.186,10.333 5.611,10.358 C4.497,11.232 3.092,11.753 1.567,11.753 C1.304,11.753 1.045,11.739 0.790,11.708 C2.231,12.631 3.943,13.171 5.781,13.171 C11.772,13.171 15.046,8.208 15.046,3.903 C15.046,3.761 15.043,3.620 15.037,3.481 C15.674,3.021 16.226,2.448 16.662,1.795 " class="cls-1"></path>
</svg>