<svg width="17px" height="13px" viewBox="0 0 17 13" version="1.1" xmlns="http://www.w3.org/2000/svg" xmlns:xlink="http://www.w3.org/1999/xlink">
    <g id="Welcome" stroke="none" stroke-width="1" fill="none" fill-rule="evenodd">
        <g transform="translate(-392.000000, -1341.000000)" fill="#333333">
            <g transform="translate(84.000000, 770.000000)">
                <g transform="translate(108.000000, 568.000000)">
                    <path d="M216.272321,4.66964286 C215.823658,5.32589614 215.281253,5.88504233 214.645089,6.34709821 C214.651786,6.44084868 214.655134,6.58147228 214.655134,6.76897321 C214.655134,7.63951328 214.527903,8.5083662 214.273437,9.37555804 C214.018972,10.2427499 213.632257,11.0747728 213.113281,11.8716518 C212.594305,12.6685308 211.976566,13.3733228 211.260045,13.9860491 C210.543523,14.5987754 209.679693,15.0876098 208.668527,15.452567 C207.657361,15.8175241 206.575899,16 205.424107,16 C203.609366,16 201.948668,15.5145138 200.441964,14.5435268 C200.67634,14.5703126 200.937499,14.5837054 201.225446,14.5837054 C202.73215,14.5837054 204.074771,14.1216564 205.253348,13.1975446 C204.55022,13.1841517 203.920762,12.9681941 203.364955,12.5496652 C202.809149,12.1311363 202.427456,11.5971015 202.219866,10.9475446 C202.440849,10.981027 202.645088,10.9977679 202.832589,10.9977679 C203.120537,10.9977679 203.405133,10.9609379 203.686384,10.8872768 C202.93638,10.7332582 202.315293,10.359936 201.823103,9.76729911 C201.330913,9.17466222 201.084821,8.48661106 201.084821,7.703125 L201.084821,7.66294643 C201.540181,7.91741199 202.029015,8.0546874 202.551339,8.07477679 C202.109373,7.78013246 201.757814,7.39509166 201.496652,6.91964286 C201.23549,6.44419405 201.104911,5.92857421 201.104911,5.37276786 C201.104911,4.7834792 201.252231,4.23772573 201.546875,3.73549107 C202.357147,4.73326392 203.343186,5.53180504 204.505022,6.13113839 C205.666858,6.73047175 206.910708,7.06361574 208.236607,7.13058036 C208.183035,6.8761148 208.15625,6.62834942 208.15625,6.38727679 C208.15625,5.48995087 208.472653,4.72489156 209.105469,4.09207589 C209.738284,3.45926023 210.503344,3.14285714 211.40067,3.14285714 C212.338174,3.14285714 213.128345,3.48437158 213.771205,4.16741071 C214.50112,4.02678501 215.187497,3.76562691 215.830357,3.38392857 C215.582588,4.15402171 215.107146,4.74999789 214.404018,5.171875 C215.026789,5.10491038 215.64955,4.93750134 216.272321,4.66964286 L216.272321,4.66964286 Z"></path>
                </g>
            </g>
        </g>
    </g>
</svg>