<svg xmlns="http://www.w3.org/2000/svg" xmlns:xlink="http://www.w3.org/1999/xlink" preserveAspectRatio="xMidYMid" width="40" height="40" viewBox="0 0 40 40">
  <defs>
    <style>
      .cls-1 {
        fill: #9a9a9a;
        fill-rule: evenodd;
      }
    </style>
  </defs>
  <path d="M9.775,11.845 L10.970,11.845 C10.970,11.845 11.331,11.804 11.516,11.596 C11.686,11.406 11.680,11.050 11.680,11.050 C11.680,11.050 11.657,9.359 12.401,9.112 C13.135,8.870 14.078,10.728 15.077,11.444 C15.832,11.984 16.406,11.845 16.406,11.845 L19.077,11.847 C19.077,11.847 20.475,11.737 19.812,10.592 C19.758,10.498 19.426,9.745 17.826,8.197 C16.151,6.576 16.375,6.839 18.393,4.036 C19.622,2.328 20.113,1.286 19.959,0.840 C19.813,0.415 18.916,0.488 18.916,0.488 L15.902,0.487 C15.902,0.487 15.679,0.465 15.513,0.567 C15.352,0.668 15.248,0.930 15.248,0.930 C15.248,0.930 14.772,2.275 14.137,3.399 C12.798,5.769 12.262,5.894 12.043,5.747 C11.534,5.404 11.662,4.369 11.662,3.633 C11.662,1.336 11.996,0.379 11.010,0.131 C10.684,0.048 10.443,-0.005 9.607,-0.015 C8.533,-0.026 7.625,-0.011 7.111,0.251 C6.769,0.426 6.505,0.814 6.666,0.837 C6.865,0.865 7.315,0.964 7.553,1.303 C7.862,1.739 7.851,2.722 7.851,2.722 C7.851,2.722 8.028,5.425 7.437,5.760 C7.032,5.991 6.476,5.520 5.282,3.371 C4.670,2.269 4.208,1.028 4.208,1.028 C4.208,1.028 4.119,0.801 3.960,0.679 C3.768,0.531 3.498,0.485 3.498,0.485 L0.640,0.485 C0.640,0.485 0.211,0.498 0.054,0.693 C-0.086,0.866 0.043,1.223 0.043,1.223 C0.043,1.223 2.280,6.722 4.813,9.471 C7.137,11.992 9.775,11.845 9.775,11.845 Z" transform="translate(10 14)" class="cls-1"/>
</svg>
