<svg width="20px" height="11px" viewBox="0 0 20 11" version="1.1" xmlns="http://www.w3.org/2000/svg" xmlns:xlink="http://www.w3.org/1999/xlink">
    <g stroke="none" stroke-width="1" fill="none" fill-rule="evenodd">
        <g transform="translate(-348.000000, -1343.000000)" fill="#333333">
            <g transform="translate(84.000000, 770.000000)">
                <g transform="translate(108.000000, 568.000000)">
                    <path d="M175.25558,5.79464286 C175.409599,6.22321643 174.907372,7.20758158 173.748884,8.74776786 C173.588169,8.96205464 173.370537,9.24665001 173.095982,9.6015625 C172.573658,10.2712087 172.272322,10.7098204 172.191964,10.9174107 C172.078124,11.1919657 172.124999,11.4631683 172.332589,11.7310268 C172.446429,11.8716525 172.717632,12.1462033 173.146205,12.5546875 L173.15625,12.5546875 L173.166295,12.5647321 L173.176339,12.5747768 L173.196429,12.5948661 C174.14063,13.4721026 174.780132,14.2120506 175.114955,14.8147321 C175.135045,14.8482145 175.156808,14.8900667 175.180246,14.9402902 C175.203683,14.9905136 175.22712,15.0792404 175.250558,15.2064732 C175.273996,15.333706 175.272322,15.4475441 175.245536,15.5479911 C175.21875,15.648438 175.135045,15.740513 174.99442,15.8242187 C174.853794,15.9079245 174.656251,15.9497768 174.401786,15.9497768 L171.830357,15.9899554 C171.669642,16.0234377 171.482144,16.0066968 171.267857,15.9397321 C171.05357,15.8727675 170.879465,15.7991075 170.745536,15.71875 L170.544643,15.5982143 C170.343749,15.4575886 170.109376,15.243305 169.841518,14.9553571 C169.573659,14.6674093 169.344309,14.4079253 169.15346,14.1768973 C168.962611,13.9458694 168.758372,13.7516749 168.540737,13.594308 C168.323102,13.4369412 168.133929,13.3850444 167.973214,13.4386161 C167.953125,13.4453125 167.926339,13.4570312 167.892857,13.4737723 C167.859375,13.4905135 167.802456,13.5390621 167.722098,13.6194196 C167.641741,13.6997772 167.569755,13.7985485 167.506138,13.9157366 C167.442522,14.0329247 167.385603,14.2070301 167.335379,14.438058 C167.285156,14.669086 167.263393,14.92857 167.270089,15.2165179 C167.270089,15.3169648 167.258371,15.4090398 167.234933,15.4927455 C167.211495,15.5764513 167.186384,15.6383927 167.159598,15.6785714 L167.11942,15.7287946 C166.998883,15.8560274 166.82143,15.9296874 166.587054,15.9497768 L165.43192,15.9497768 C164.956471,15.9765626 164.467636,15.9213177 163.965402,15.7840402 C163.463167,15.6467627 163.022881,15.4693091 162.644531,15.2516741 C162.266181,15.0340391 161.921319,14.8130592 161.609933,14.5887277 C161.298548,14.3643962 161.062501,14.1718758 160.901786,14.0111607 L160.65067,13.7700893 C160.583705,13.7031247 160.49163,13.6026792 160.374442,13.46875 C160.257254,13.3348208 160.017859,13.0301363 159.65625,12.5546875 C159.294641,12.0792387 158.939734,11.5736634 158.591518,11.0379464 C158.243302,10.5022295 157.83315,9.79576331 157.361049,8.91852679 C156.888949,8.04129026 156.452011,7.13058508 156.050223,6.18638393 C156.010044,6.07924054 155.989955,5.98883965 155.989955,5.91517857 C155.989955,5.84151749 156,5.7879466 156.020089,5.75446429 L156.060268,5.69419643 C156.160715,5.56696365 156.351561,5.50334821 156.632813,5.50334821 L159.385045,5.48325893 C159.465402,5.49665185 159.54241,5.51841503 159.616071,5.54854911 C159.689733,5.57868319 159.743303,5.60714272 159.776786,5.63392857 L159.827009,5.6640625 C159.934152,5.73772358 160.014509,5.84486537 160.06808,5.98549107 C160.20201,6.32031417 160.356026,6.66685089 160.530134,7.02511161 C160.704242,7.38337233 160.841517,7.65624906 160.941964,7.84375 L161.102679,8.13504464 C161.296876,8.53683237 161.484374,8.88504317 161.665179,9.1796875 C161.845983,9.47433183 162.00837,9.70368222 162.152344,9.86774554 C162.296318,10.0318089 162.435267,10.1607138 162.569196,10.2544643 C162.703126,10.3482148 162.816964,10.3950893 162.910714,10.3950893 C163.004465,10.3950893 163.094866,10.3783484 163.18192,10.3448661 C163.195313,10.3381696 163.212053,10.3214287 163.232143,10.2946429 C163.252232,10.267857 163.29241,10.194197 163.352679,10.0736607 C163.412947,9.9531244 163.458147,9.7957599 163.488281,9.6015625 C163.518415,9.4073651 163.550223,9.13616246 163.583705,8.78794643 C163.617188,8.4397304 163.617188,8.0212078 163.583705,7.53236607 C163.570312,7.26450759 163.540179,7.02009039 163.493304,6.79910714 C163.446428,6.5781239 163.399554,6.42410758 163.352679,6.33705357 L163.292411,6.21651786 C163.124999,5.98883815 162.840404,5.84486637 162.438616,5.78459821 C162.351562,5.77120529 162.368303,5.69084895 162.488839,5.54352679 C162.602679,5.41629401 162.72991,5.31584858 162.870536,5.2421875 C163.225448,5.06807949 164.025663,4.98772315 165.271205,5.00111607 C165.820315,5.00781253 166.27232,5.05133888 166.627232,5.13169643 C166.761161,5.16517874 166.873325,5.21037918 166.963728,5.26729911 C167.05413,5.32421903 167.122768,5.40457537 167.169643,5.50837054 C167.216518,5.6121657 167.251674,5.71930748 167.275112,5.82979911 C167.298549,5.94029073 167.310268,6.09263296 167.310268,6.28683036 C167.310268,6.48102776 167.30692,6.6651777 167.300223,6.83928571 C167.293527,7.01339373 167.285156,7.24944047 167.275112,7.54743304 C167.265067,7.8454256 167.260045,8.12165051 167.260045,8.37611607 C167.260045,8.44977715 167.256696,8.59040075 167.25,8.79799107 C167.243304,9.0055814 167.241629,9.16629407 167.244978,9.28013393 C167.248326,9.39397378 167.260045,9.52957511 167.280134,9.68694196 C167.300223,9.84430882 167.338727,9.97488787 167.395647,10.078683 C167.452567,10.1824782 167.527901,10.2645086 167.621652,10.3247768 C167.675223,10.3381697 167.732143,10.3515624 167.792411,10.3649554 C167.852679,10.3783483 167.939732,10.3415183 168.053571,10.2544643 C168.167411,10.1674103 168.294642,10.051898 168.435268,9.90792411 C168.575894,9.76395017 168.749999,9.53962206 168.957589,9.23493304 C169.16518,8.93024401 169.392856,8.57031458 169.640625,8.15513393 C170.042413,7.45870187 170.400668,6.70536119 170.715402,5.89508929 C170.742188,5.82812467 170.775669,5.7695315 170.815848,5.71930804 C170.856027,5.66908457 170.892857,5.63392867 170.926339,5.61383929 L170.966518,5.58370536 C170.979911,5.5770089 170.996652,5.56863844 171.016741,5.55859375 C171.03683,5.54854906 171.080357,5.53850451 171.147321,5.52845982 C171.214286,5.51841513 171.28125,5.51674104 171.348214,5.5234375 L174.241071,5.50334821 C174.502233,5.4698659 174.716517,5.47823636 174.883929,5.52845982 C175.05134,5.57868329 175.155134,5.63392827 175.195313,5.69419643 L175.25558,5.79464286 Z" id=""></path>
                </g>
            </g>
        </g>
    </g>
</svg>