<svg xmlns="http://www.w3.org/2000/svg" xmlns:xlink="http://www.w3.org/1999/xlink" preserveAspectRatio="xMidYMid" width="47" height="24" viewBox="0 0 47 24">
  <defs>
    <style>
      .cls-1 {
        fill: #000;
        fill-rule: evenodd;
      }
    </style>
  </defs>
  <g>
    <path d="M36.698,0.011 C36.457,-0.066 36.197,0.064 36.119,0.301 C35.565,1.986 33.983,3.117 32.183,3.117 C30.491,3.117 28.986,2.120 28.349,0.576 C28.332,0.535 28.308,0.499 28.281,0.465 C28.292,0.265 28.168,0.075 27.965,0.011 C27.725,-0.066 27.465,0.064 27.387,0.301 C26.832,1.985 25.251,3.117 23.451,3.117 C21.759,3.117 20.254,2.120 19.617,0.576 C19.600,0.535 19.576,0.499 19.549,0.466 C19.560,0.266 19.436,0.075 19.233,0.011 C18.992,-0.066 18.732,0.064 18.654,0.301 C18.100,1.985 16.518,3.117 14.718,3.117 C13.026,3.117 11.521,2.120 10.884,0.576 C10.789,0.345 10.522,0.233 10.285,0.327 C10.050,0.421 9.937,0.685 10.033,0.917 C10.811,2.803 12.650,4.022 14.718,4.022 C16.548,4.022 18.193,3.064 19.085,1.557 C19.982,3.074 21.627,4.022 23.451,4.022 C25.281,4.022 26.926,3.064 27.817,1.557 C28.715,3.074 30.360,4.022 32.183,4.022 C34.383,4.022 36.316,2.639 36.993,0.580 C37.072,0.343 36.939,0.087 36.698,0.011 Z" class="cls-1"/>
    <path d="M46.689,9.988 C46.449,9.912 46.189,10.042 46.111,10.279 C45.556,11.963 43.975,13.095 42.175,13.095 C40.483,13.095 38.978,12.097 38.341,10.554 C38.324,10.512 38.300,10.477 38.273,10.443 C38.284,10.243 38.160,10.053 37.957,9.988 C37.717,9.912 37.456,10.042 37.378,10.279 C36.824,11.963 35.242,13.095 33.442,13.095 C31.750,13.095 30.245,12.097 29.608,10.554 C29.591,10.512 29.567,10.477 29.540,10.443 C29.551,10.243 29.427,10.053 29.225,9.988 C28.984,9.912 28.724,10.042 28.646,10.279 C28.091,11.963 26.510,13.095 24.710,13.095 C23.018,13.095 21.513,12.097 20.876,10.554 C20.780,10.323 20.513,10.211 20.277,10.305 C20.042,10.399 19.929,10.663 20.024,10.895 C20.803,12.781 22.642,14.000 24.710,14.000 C26.540,14.000 28.185,13.042 29.076,11.534 C29.974,13.052 31.619,14.000 33.442,14.000 C35.272,14.000 36.917,13.042 37.809,11.534 C38.706,13.052 40.351,14.000 42.175,14.000 C44.374,14.000 46.307,12.617 46.985,10.558 C47.063,10.320 46.931,10.065 46.689,9.988 Z" class="cls-1"/>
    <path d="M26.689,19.988 C26.449,19.912 26.189,20.042 26.111,20.279 C25.556,21.963 23.975,23.095 22.175,23.095 C20.482,23.095 18.978,22.097 18.341,20.554 C18.324,20.513 18.300,20.476 18.273,20.443 C18.284,20.243 18.160,20.053 17.957,19.988 C17.717,19.912 17.456,20.042 17.378,20.279 C16.824,21.963 15.242,23.095 13.442,23.095 C11.750,23.095 10.245,22.097 9.608,20.554 C9.591,20.513 9.567,20.476 9.540,20.443 C9.551,20.243 9.427,20.053 9.225,19.988 C8.984,19.912 8.724,20.042 8.646,20.279 C8.091,21.963 6.510,23.095 4.710,23.095 C3.018,23.095 1.513,22.097 0.876,20.554 C0.780,20.323 0.513,20.211 0.277,20.305 C0.042,20.399 -0.071,20.663 0.024,20.894 C0.803,22.781 2.642,24.000 4.710,24.000 C6.540,24.000 8.185,23.042 9.076,21.534 C9.974,23.052 11.619,24.000 13.442,24.000 C15.272,24.000 16.917,23.042 17.809,21.534 C18.706,23.052 20.351,24.000 22.175,24.000 C24.374,24.000 26.307,22.617 26.985,20.558 C27.063,20.320 26.931,20.065 26.689,19.988 Z" class="cls-1"/>
  </g>
</svg>
